# Blender v2.82 (sub 7) OBJ File: ''
# www.blender.org
mtllib 1 quarter dome.mtl
o OctahedronDome
v -0.030000 -0.248000 2.763000
v -0.109000 -1.310000 3.058000
v -1.193000 -1.310000 2.848000
v -1.651000 0.038000 2.066000
v -2.506000 -1.310000 1.701000
v -2.586000 -0.248000 0.559000
v -2.880000 -1.310000 0.480000
v -0.206000 1.026000 1.600000
v -1.422000 1.026000 0.383000
v -0.206000 1.313000 0.383000
vt 0.110895 0.357388
vt 0.293560 0.000688
vt 0.000000 0.032030
vt 0.498839 0.342562
vt 0.684066 0.000000
vt 0.865098 0.339757
vt 1.000000 0.036258
vt 0.336001 0.722550
vt 0.703626 0.733834
vt 0.507464 1.000000
vn -0.1828 0.2757 0.9437
vn -0.3017 0.3997 0.8656
vn -0.6434 0.2087 0.7365
vn -0.8112 0.3988 0.4276
vn -0.9291 0.2360 0.2846
vn -0.2031 0.6447 0.7370
vn -0.4175 0.8073 0.4171
vn -0.6839 0.6660 0.2979
vn -0.2239 0.9486 0.2237
usemtl Default_OBJ
s 1
f 1/1/1 3/2/1 2/3/1
f 1/1/2 4/4/2 3/2/2
f 3/2/3 4/4/3 5/5/3
f 4/4/4 6/6/4 5/5/4
f 5/5/5 6/6/5 7/7/5
f 1/1/6 8/8/6 4/4/6
f 8/8/7 9/9/7 4/4/7
f 4/4/8 9/9/8 6/6/8
f 10/10/9 9/9/9 8/8/9
