# Blender v2.82 (sub 7) OBJ File: ''
# www.blender.org
mtllib 3 quarters dome.mtl
o OctahedronDome
v -0.109000 -0.420000 -2.081000
v 0.781000 -1.310000 -2.081000
v -0.206000 -1.407000 -2.337000
v 1.239000 0.038000 -1.300000
v 2.095000 -1.310000 -0.935000
v 2.174000 -0.248000 0.207000
v 2.469000 -1.310000 0.287000
v 2.259000 -1.310000 1.370000
v 1.477000 0.038000 1.828000
v 1.112000 -1.310000 2.684000
v -0.030000 -0.248000 2.763000
v -0.109000 -1.310000 3.058000
v -1.193000 -1.310000 2.848000
v -1.651000 0.038000 2.066000
v -2.506000 -1.310000 1.701000
v -2.586000 -0.248000 0.559000
v -2.880000 -1.310000 0.480000
v -0.109000 0.893000 -0.935000
v 1.011000 1.026000 0.383000
v -0.206000 1.026000 1.600000
v -1.422000 1.026000 0.383000
v -0.206000 1.313000 0.383000
vt 0.130255 0.867938
vt 0.000000 0.737092
vt 0.083792 0.945745
vt 0.091340 0.545713
vt 0.004753 0.322908
vt 0.209278 0.495880
vt 0.000100 0.667802
vt 0.258249 0.734280
vt 0.140243 0.877753
vt 0.321803 0.998264
vt 0.495543 0.790138
vt 0.669544 0.999900
vt 0.498056 0.101840
vt 0.808903 0.210702
vt 0.684516 0.000000
vt 0.895610 0.157225
vt 1.000000 0.373807
vt 0.890188 0.561067
vt 0.990240 0.762473
vt 0.795901 0.909291
vt 0.851455 1.000000
vt 0.302780 0.699650
vt 0.354120 0.373293
vt 0.188533 0.196856
vt 0.643874 0.403893
vt 0.616479 0.730384
vt 0.483984 0.551739
vn 0.2240 0.2240 -0.9485
vn 0.3689 0.3689 -0.8531
vn 0.6428 0.2086 -0.7371
vn 0.8111 0.3993 -0.4274
vn 0.9291 0.2367 -0.2843
vn 0.9436 0.2759 0.1830
vn 0.8656 0.3997 0.3017
vn 0.7367 0.2089 0.6431
vn 0.4274 0.3993 0.8111
vn 0.2845 0.2369 0.9289
vn -0.1828 0.2757 0.9437
vn -0.3017 0.3997 0.8656
vn -0.6434 0.2087 0.7365
vn -0.8112 0.3988 0.4276
vn -0.9291 0.2360 0.2846
vn 0.2084 0.6431 -0.7369
vn 0.4010 0.8127 -0.4228
vn 0.6841 0.6657 -0.2981
vn 0.7370 0.6447 0.2031
vn 0.4173 0.8072 0.4173
vn 0.2981 0.6657 0.6841
vn -0.2031 0.6447 0.7370
vn -0.4175 0.8073 0.4171
vn -0.6839 0.6660 0.2979
vn 0.2203 0.9340 -0.2814
vn 0.2237 0.9486 0.2237
vn -0.2239 0.9486 0.2237
usemtl Default_OBJ
s 1
f 1/1/1 2/2/1 3/3/1
f 4/4/2 2/2/2 1/1/2
f 2/5/3 4/6/3 5/7/3
f 5/7/4 4/6/4 6/8/4
f 5/7/5 6/8/5 7/9/5
f 7/9/6 6/8/6 8/10/6
f 8/10/7 6/8/7 9/11/7
f 8/10/8 9/11/8 10/12/8
f 9/13/9 11/14/9 10/15/9
f 10/15/10 11/14/10 12/16/10
f 11/14/11 13/17/11 12/16/11
f 11/14/12 14/18/12 13/17/12
f 13/17/13 14/18/13 15/19/13
f 14/18/14 16/20/14 15/19/14
f 15/19/15 16/20/15 17/21/15
f 1/1/16 18/22/16 4/4/16
f 4/4/17 18/22/17 19/23/17
f 4/4/18 19/23/18 6/24/18
f 6/24/19 19/23/19 9/13/19
f 19/23/20 20/25/20 9/13/20
f 9/13/21 20/25/21 11/14/21
f 11/14/22 20/25/22 14/18/22
f 20/25/23 21/26/23 14/18/23
f 14/18/24 21/26/24 16/20/24
f 18/22/25 22/27/25 19/23/25
f 19/23/26 22/27/26 20/25/26
f 22/27/27 21/26/27 20/25/27
