# Blender v2.82 (sub 7) OBJ File: ''
# www.blender.org
mtllib 3 quarters dome2.mtl
o OctahedronDome
v -0.030000 -0.248000 2.763000
v -0.109000 -1.310000 3.058000
v -1.193000 -1.310000 2.848000
v -1.651000 0.038000 2.066000
v -2.506000 -1.310000 1.701000
v -2.586000 -0.248000 0.559000
v -2.880000 -1.310000 0.480000
v -0.206000 1.026000 1.600000
v -1.422000 1.026000 0.383000
v -0.206000 1.313000 0.383000
vt 0.573470 0.198471
vt 0.597277 0.417760
vt 0.477846 0.319876
vt 0.782907 0.309293
vt 0.814801 0.523682
vt 0.999879 0.407469
vt 0.989421 0.561728
vt 0.778391 0.069176
vt 0.999879 0.164479
vt 0.939460 0.000121
vn -0.1828 0.2757 0.9437
vn -0.3017 0.3997 0.8656
vn -0.6434 0.2087 0.7365
vn -0.8112 0.3988 0.4276
vn -0.9291 0.2360 0.2846
vn -0.2031 0.6447 0.7370
vn -0.4175 0.8073 0.4171
vn -0.6839 0.6660 0.2979
vn -0.2239 0.9486 0.2237
usemtl Default_OBJ
s 1
f 1/1/1 3/2/1 2/3/1
f 1/1/2 4/4/2 3/2/2
f 3/2/3 4/4/3 5/5/3
f 4/4/4 6/6/4 5/5/4
f 5/5/5 6/6/5 7/7/5
f 1/1/6 8/8/6 4/4/6
f 8/8/7 9/9/7 4/4/7
f 4/4/8 9/9/8 6/6/8
f 10/10/9 9/9/9 8/8/9
o OctahedronDome.001
v -0.109000 -0.420000 -2.081000
v 0.781000 -1.310000 -2.081000
v -0.206000 -1.407000 -2.337000
v 1.239000 0.038000 -1.300000
v 2.095000 -1.310000 -0.935000
v 2.174000 -0.248000 0.207000
v 2.469000 -1.310000 0.287000
v 2.259000 -1.310000 1.370000
v 1.477000 0.038000 1.828000
v 1.112000 -1.310000 2.684000
v -0.030000 -0.248000 2.763000
v -0.109000 -1.310000 3.058000
v -1.193000 -1.310000 2.848000
v -1.651000 0.038000 2.066000
v -2.506000 -1.310000 1.701000
v -2.586000 -0.248000 0.559000
v -2.880000 -1.310000 0.480000
v -0.109000 0.893000 -0.935000
v 1.011000 1.026000 0.383000
v -0.206000 1.026000 1.600000
v -1.422000 1.026000 0.383000
v -0.206000 1.313000 0.383000
vt 0.477604 0.122679
vt 0.352478 0.038240
vt 0.469255 0.000121
vt 0.324833 0.214218
vt 0.166689 0.128748
vt 0.168196 0.297813
vt 0.064730 0.240583
vt 0.007806 0.358265
vt 0.142610 0.465903
vt 0.000121 0.564991
vt 0.153289 0.635855
vt 0.057583 0.704689
vt 0.139622 0.806126
vt 0.300201 0.731321
vt 0.318532 0.908316
vt 0.477604 0.812542
vt 0.466263 0.943417
vt 0.463190 0.328629
vt 0.296309 0.399977
vt 0.297467 0.558792
vt 0.473141 0.606566
vt 0.399005 0.478272
vn 0.2240 0.2240 -0.9485
vn 0.3689 0.3689 -0.8531
vn 0.6428 0.2086 -0.7371
vn 0.8111 0.3993 -0.4274
vn 0.9291 0.2367 -0.2843
vn 0.9436 0.2759 0.1830
vn 0.8656 0.3997 0.3017
vn 0.7367 0.2089 0.6431
vn 0.4274 0.3993 0.8111
vn 0.2845 0.2369 0.9289
vn -0.1828 0.2757 0.9437
vn -0.3017 0.3997 0.8656
vn -0.6434 0.2087 0.7365
vn -0.8112 0.3988 0.4276
vn -0.9291 0.2360 0.2846
vn 0.2084 0.6431 -0.7369
vn 0.4010 0.8127 -0.4228
vn 0.6841 0.6657 -0.2981
vn 0.7370 0.6447 0.2031
vn 0.4173 0.8072 0.4173
vn 0.2981 0.6657 0.6841
vn -0.2031 0.6447 0.7370
vn -0.4175 0.8073 0.4171
vn -0.6839 0.6660 0.2979
vn 0.2203 0.9340 -0.2814
vn 0.2237 0.9486 0.2237
vn -0.2239 0.9486 0.2237
usemtl Default_OBJ.001
s 1
f 11/11/10 12/12/10 13/13/10
f 14/14/11 12/12/11 11/11/11
f 12/12/12 14/14/12 15/15/12
f 15/15/13 14/14/13 16/16/13
f 15/15/14 16/16/14 17/17/14
f 17/17/15 16/16/15 18/18/15
f 18/18/16 16/16/16 19/19/16
f 18/18/17 19/19/17 20/20/17
f 19/19/18 21/21/18 20/20/18
f 20/20/19 21/21/19 22/22/19
f 21/21/20 23/23/20 22/22/20
f 21/21/21 24/24/21 23/23/21
f 23/23/22 24/24/22 25/25/22
f 24/24/23 26/26/23 25/25/23
f 25/25/24 26/26/24 27/27/24
f 11/11/25 28/28/25 14/14/25
f 14/14/26 28/28/26 29/29/26
f 14/14/27 29/29/27 16/16/27
f 16/16/28 29/29/28 19/19/28
f 29/29/29 30/30/29 19/19/29
f 19/19/30 30/30/30 21/21/30
f 21/21/31 30/30/31 24/24/31
f 30/30/32 31/31/32 24/24/32
f 24/24/33 31/31/33 26/26/33
f 28/28/34 32/32/34 29/29/34
f 29/29/35 32/32/35 30/30/35
f 32/32/36 31/31/36 30/30/36
